<mxfile host="app.diagrams.net" agent="Mozilla/5.0 (Macintosh; Intel Mac OS X 10_15_7) AppleWebKit/537.36 (KHTML, like Gecko) Chrome/132.0.0.0 YaBrowser/25.2.0.0 Safari/537.36" version="26.1.1">
  <diagram name="Page-1" id="M_tylob18ua0-KjRqnd7">
    <mxGraphModel dx="1103" dy="686" grid="1" gridSize="10" guides="1" tooltips="1" connect="1" arrows="1" fold="1" page="1" pageScale="1" pageWidth="827" pageHeight="1169" math="0" shadow="0">
      <root>
        <mxCell id="0" />
        <mxCell id="1" parent="0" />
        <mxCell id="O2lzYGiAKLzB1u1bFbCT-7" value="" style="edgeStyle=orthogonalEdgeStyle;rounded=0;orthogonalLoop=1;jettySize=auto;html=1;" edge="1" parent="1" source="O2lzYGiAKLzB1u1bFbCT-1" target="O2lzYGiAKLzB1u1bFbCT-6">
          <mxGeometry relative="1" as="geometry" />
        </mxCell>
        <mxCell id="O2lzYGiAKLzB1u1bFbCT-1" value="&lt;div&gt;начало&lt;/div&gt;" style="ellipse;whiteSpace=wrap;html=1;" vertex="1" parent="1">
          <mxGeometry x="280" y="120" width="120" height="80" as="geometry" />
        </mxCell>
        <mxCell id="O2lzYGiAKLzB1u1bFbCT-11" value="" style="edgeStyle=orthogonalEdgeStyle;rounded=0;orthogonalLoop=1;jettySize=auto;html=1;" edge="1" parent="1" source="O2lzYGiAKLzB1u1bFbCT-6" target="O2lzYGiAKLzB1u1bFbCT-10">
          <mxGeometry relative="1" as="geometry" />
        </mxCell>
        <mxCell id="O2lzYGiAKLzB1u1bFbCT-6" value="&lt;div style=&quot;&quot;&gt;&lt;span style=&quot;background-color: transparent; color: light-dark(rgb(0, 0, 0), rgb(255, 255, 255));&quot;&gt;Пропарсить логи в соотвествии с типом:&lt;/span&gt;&lt;/div&gt;&lt;div style=&quot;&quot;&gt;&lt;span style=&quot;background-color: transparent; color: light-dark(rgb(0, 0, 0), rgb(255, 255, 255));&quot;&gt;&amp;nbsp;&lt;/span&gt;&lt;/div&gt;&lt;div&gt;&lt;div style=&quot;&quot;&gt;&lt;div&gt;export interface ConnectionLog {&lt;/div&gt;&lt;div&gt;&amp;nbsp; uuid: string;&lt;/div&gt;&lt;div&gt;&amp;nbsp; connections: ConnectionInfo[];&lt;/div&gt;&lt;div&gt;}&lt;/div&gt;&lt;div&gt;&lt;br&gt;&lt;/div&gt;&lt;div&gt;export interface ConnectionInfo {&lt;/div&gt;&lt;div&gt;&amp;nbsp; ip: string;&lt;/div&gt;&lt;div&gt;&amp;nbsp; port: string;&lt;/div&gt;&lt;div&gt;&amp;nbsp; inbound: string;&lt;/div&gt;&lt;div&gt;&amp;nbsp; appointment: string;&lt;/div&gt;&lt;div&gt;&amp;nbsp; dateConnection: string;&lt;/div&gt;&lt;div&gt;}&lt;/div&gt;&lt;div&gt;&lt;br&gt;&lt;/div&gt;&lt;/div&gt;&lt;/div&gt;" style="whiteSpace=wrap;html=1;align=left;" vertex="1" parent="1">
          <mxGeometry x="152.5" y="250" width="375" height="230" as="geometry" />
        </mxCell>
        <mxCell id="O2lzYGiAKLzB1u1bFbCT-13" value="" style="edgeStyle=orthogonalEdgeStyle;rounded=0;orthogonalLoop=1;jettySize=auto;html=1;" edge="1" parent="1" source="O2lzYGiAKLzB1u1bFbCT-10" target="O2lzYGiAKLzB1u1bFbCT-12">
          <mxGeometry relative="1" as="geometry" />
        </mxCell>
        <mxCell id="O2lzYGiAKLzB1u1bFbCT-16" value="да" style="edgeLabel;html=1;align=center;verticalAlign=middle;resizable=0;points=[];" vertex="1" connectable="0" parent="O2lzYGiAKLzB1u1bFbCT-13">
          <mxGeometry x="-0.1636" y="-2" relative="1" as="geometry">
            <mxPoint x="-1" as="offset" />
          </mxGeometry>
        </mxCell>
        <mxCell id="O2lzYGiAKLzB1u1bFbCT-15" value="" style="edgeStyle=orthogonalEdgeStyle;rounded=0;orthogonalLoop=1;jettySize=auto;html=1;" edge="1" parent="1" source="O2lzYGiAKLzB1u1bFbCT-10" target="O2lzYGiAKLzB1u1bFbCT-14">
          <mxGeometry relative="1" as="geometry" />
        </mxCell>
        <mxCell id="O2lzYGiAKLzB1u1bFbCT-17" value="нет" style="edgeLabel;html=1;align=center;verticalAlign=middle;resizable=0;points=[];" vertex="1" connectable="0" parent="O2lzYGiAKLzB1u1bFbCT-15">
          <mxGeometry x="0.0338" y="2" relative="1" as="geometry">
            <mxPoint as="offset" />
          </mxGeometry>
        </mxCell>
        <mxCell id="O2lzYGiAKLzB1u1bFbCT-10" value="&lt;span style=&quot;text-align: left;&quot;&gt;connections.length &amp;gt; limit?&lt;/span&gt;" style="rhombus;whiteSpace=wrap;html=1;align=center;" vertex="1" parent="1">
          <mxGeometry x="170" y="580" width="340" height="175" as="geometry" />
        </mxCell>
        <mxCell id="O2lzYGiAKLzB1u1bFbCT-19" value="" style="edgeStyle=orthogonalEdgeStyle;rounded=0;orthogonalLoop=1;jettySize=auto;html=1;" edge="1" parent="1" source="O2lzYGiAKLzB1u1bFbCT-12" target="O2lzYGiAKLzB1u1bFbCT-18">
          <mxGeometry relative="1" as="geometry" />
        </mxCell>
        <mxCell id="O2lzYGiAKLzB1u1bFbCT-12" value="Удалить по uuid клиента из clients" style="whiteSpace=wrap;html=1;" vertex="1" parent="1">
          <mxGeometry x="700" y="540" width="410" height="252.5" as="geometry" />
        </mxCell>
        <mxCell id="O2lzYGiAKLzB1u1bFbCT-14" value="" style="whiteSpace=wrap;html=1;" vertex="1" parent="1">
          <mxGeometry x="280" y="892.5" width="120" height="60" as="geometry" />
        </mxCell>
        <mxCell id="O2lzYGiAKLzB1u1bFbCT-23" value="" style="edgeStyle=orthogonalEdgeStyle;rounded=0;orthogonalLoop=1;jettySize=auto;html=1;" edge="1" parent="1" source="O2lzYGiAKLzB1u1bFbCT-18" target="O2lzYGiAKLzB1u1bFbCT-22">
          <mxGeometry relative="1" as="geometry" />
        </mxCell>
        <mxCell id="O2lzYGiAKLzB1u1bFbCT-18" value="Перезагрузить Xray" style="whiteSpace=wrap;html=1;" vertex="1" parent="1">
          <mxGeometry x="1335" y="636.25" width="125" height="60" as="geometry" />
        </mxCell>
        <mxCell id="O2lzYGiAKLzB1u1bFbCT-25" value="" style="edgeStyle=orthogonalEdgeStyle;rounded=0;orthogonalLoop=1;jettySize=auto;html=1;" edge="1" parent="1" source="O2lzYGiAKLzB1u1bFbCT-22" target="O2lzYGiAKLzB1u1bFbCT-24">
          <mxGeometry relative="1" as="geometry" />
        </mxCell>
        <mxCell id="O2lzYGiAKLzB1u1bFbCT-22" value="Сообщить пользователю в телеграмм, что превышен лимит подключенных устройств и попросить отключить до лимита" style="shape=parallelogram;perimeter=parallelogramPerimeter;whiteSpace=wrap;html=1;fixedSize=1;" vertex="1" parent="1">
          <mxGeometry x="1542.5" y="614.38" width="427.5" height="103.75" as="geometry" />
        </mxCell>
        <mxCell id="O2lzYGiAKLzB1u1bFbCT-24" value="Клиент отключи" style="rhombus;whiteSpace=wrap;html=1;" vertex="1" parent="1">
          <mxGeometry x="1716.25" y="810.005" width="80" height="80" as="geometry" />
        </mxCell>
      </root>
    </mxGraphModel>
  </diagram>
</mxfile>
